<svg id="visual" viewBox="0 0 960 540" width="960" height="540" xmlns="http://www.w3.org/2000/svg" xmlns:xlink="http://www.w3.org/1999/xlink" version="1.1"><rect x="0" y="0" width="960" height="540" fill="#ffffff"></rect><defs><linearGradient id="grad1_0" x1="43.8%" y1="0%" x2="100%" y2="100%"><stop offset="14.444444444444446%" stop-color="#0099ff" stop-opacity="1"></stop><stop offset="85.55555555555554%" stop-color="#0099ff" stop-opacity="1"></stop></linearGradient></defs><defs><linearGradient id="grad1_1" x1="43.8%" y1="0%" x2="100%" y2="100%"><stop offset="14.444444444444446%" stop-color="#0099ff" stop-opacity="1"></stop><stop offset="85.55555555555554%" stop-color="#aacaff" stop-opacity="1"></stop></linearGradient></defs><defs><linearGradient id="grad1_2" x1="43.8%" y1="0%" x2="100%" y2="100%"><stop offset="14.444444444444446%" stop-color="#ffffff" stop-opacity="1"></stop><stop offset="85.55555555555554%" stop-color="#aacaff" stop-opacity="1"></stop></linearGradient></defs><defs><linearGradient id="grad2_0" x1="0%" y1="0%" x2="56.3%" y2="100%"><stop offset="14.444444444444446%" stop-color="#0099ff" stop-opacity="1"></stop><stop offset="85.55555555555554%" stop-color="#0099ff" stop-opacity="1"></stop></linearGradient></defs><defs><linearGradient id="grad2_1" x1="0%" y1="0%" x2="56.3%" y2="100%"><stop offset="14.444444444444446%" stop-color="#aacaff" stop-opacity="1"></stop><stop offset="85.55555555555554%" stop-color="#0099ff" stop-opacity="1"></stop></linearGradient></defs><defs><linearGradient id="grad2_2" x1="0%" y1="0%" x2="56.3%" y2="100%"><stop offset="14.444444444444446%" stop-color="#aacaff" stop-opacity="1"></stop><stop offset="85.55555555555554%" stop-color="#ffffff" stop-opacity="1"></stop></linearGradient></defs><g transform="translate(960, 0)"><path d="M0 351C-47.9 348.5 -95.9 346 -134.3 324.3C-172.8 302.6 -201.7 261.7 -224.9 224.9C-248 188 -265.4 155.1 -285.5 118.2C-305.5 81.4 -328.3 40.7 -351 0L0 0Z" fill="#d6e4ff"></path><path d="M0 234C-32 232.3 -63.9 230.6 -89.5 216.2C-115.2 201.7 -134.5 174.5 -149.9 149.9C-165.3 125.3 -176.9 103.4 -190.3 78.8C-203.7 54.3 -218.8 27.1 -234 0L0 0Z" fill="#76b1ff"></path><path d="M0 117C-16 116.2 -32 115.3 -44.8 108.1C-57.6 100.9 -67.2 87.2 -75 75C-82.7 62.7 -88.5 51.7 -95.2 39.4C-101.8 27.1 -109.4 13.6 -117 0L0 0Z" fill="#0099ff"></path></g><g transform="translate(0, 540)"><path d="M0 -351C46.9 -347.3 93.9 -343.6 134.3 -324.3C174.8 -305 208.8 -270.1 234.1 -234.1C259.3 -198 275.8 -160.9 293.8 -121.7C311.8 -82.5 331.4 -41.2 351 0L0 0Z" fill="#d6e4ff"></path><path d="M0 -234C31.3 -231.5 62.6 -229.1 89.5 -216.2C116.5 -203.3 139.2 -180 156 -156C172.9 -132 183.8 -107.3 195.9 -81.1C207.9 -55 220.9 -27.5 234 0L0 0Z" fill="#76b1ff"></path><path d="M0 -117C15.6 -115.8 31.3 -114.5 44.8 -108.1C58.3 -101.7 69.6 -90 78 -78C86.4 -66 91.9 -53.6 97.9 -40.6C103.9 -27.5 110.5 -13.7 117 0L0 0Z" fill="#0099ff"></path></g></svg>